<?xml version="1.0" standalone="no"?>
<!DOCTYPE svg PUBLIC "-//W3C//DTD SVG 20010904//EN"
 "http://www.w3.org/TR/2001/REC-SVG-20010904/DTD/svg10.dtd">
<svg version="1.0" xmlns="http://www.w3.org/2000/svg"
 width="512.000000pt" height="468.000000pt" viewBox="0 0 512.000000 468.000000"
 preserveAspectRatio="xMidYMid meet">

<g transform="translate(0.000000,468.000000) scale(0.100000,-0.100000)"
fill="#000000" stroke="none">
<path d="M0 2340 l0 -2340 2560 0 2560 0 0 2340 0 2340 -2560 0 -2560 0 0
-2340z m2629 2252 c23 -25 36 -30 101 -36 554 -52 1023 -274 1405 -667 101
-104 113 -113 144 -110 48 3 89 -17 106 -50 18 -34 19 -82 4 -107 -10 -16 -3
-34 40 -106 190 -322 293 -642 320 -998 7 -92 11 -110 29 -125 12 -10 25 -32
28 -50 5 -27 1 -37 -25 -63 -20 -21 -31 -41 -31 -60 0 -69 -34 -283 -65 -405
-117 -464 -387 -881 -763 -1179 -205 -162 -466 -304 -572 -312 -42 -3 -38 0
55 40 436 186 826 546 1058 976 130 241 223 554 243 818 l7 88 -32 31 c-19 19
-31 42 -31 58 0 24 32 67 57 76 16 6 -2 216 -33 371 -46 237 -141 484 -265
694 -61 102 -65 105 -94 101 -16 -2 -40 -1 -53 4 -17 7 -21 6 -15 -4 4 -6 34
-51 66 -99 65 -98 150 -270 197 -398 99 -268 145 -604 121 -875 -58 -647 -372
-1194 -901 -1567 -70 -49 -278 -168 -295 -168 -5 0 39 27 97 59 331 184 599
438 788 746 146 238 258 567 291 854 15 134 6 455 -16 576 -56 309 -157 563
-324 811 -198 296 -470 535 -796 701 -277 141 -530 204 -885 223 l-155 9 165
-4 c186 -5 313 -22 475 -64 405 -106 771 -332 1042 -642 l78 -90 8 51 7 52
-57 65 c-335 382 -863 651 -1383 705 l-109 12 -29 -32 c-35 -37 -72 -42 -102
-12 -11 11 -20 24 -20 29 0 10 -31 22 -85 31 -38 7 -38 7 17 8 42 2 60 7 70
20 34 48 80 53 117 14z m-176 -59 c-13 -2 -35 -2 -50 0 -16 2 -5 4 22 4 28 0
40 -2 28 -4z m-60 -100 c-13 -2 -33 -2 -45 0 -13 2 -3 4 22 4 25 0 35 -2 23
-4z m-100 -10 c-7 -2 -21 -2 -30 0 -10 3 -4 5 12 5 17 0 24 -2 18 -5z m-70
-10 c-7 -2 -21 -2 -30 0 -10 3 -4 5 12 5 17 0 24 -2 18 -5z m-60 -10 c-7 -2
-19 -2 -25 0 -7 3 -2 5 12 5 14 0 19 -2 13 -5z m643 -1344 c232 -43 387 -264
353 -504 -5 -36 -16 -82 -24 -102 l-16 -37 -87 87 c-48 48 -95 87 -105 87 -11
0 -17 8 -17 23 0 81 -69 175 -145 196 -22 6 -83 11 -135 12 -97 1 -103 3 -37
14 20 3 37 10 37 16 0 6 -5 7 -11 3 -8 -4 -9 1 -4 17 7 20 6 22 -7 12 -12 -10
-15 -10 -15 5 0 9 4 20 10 23 6 4 5 14 -2 25 -6 11 -11 15 -11 11 0 -5 -5 -5
-10 -2 -17 10 8 35 27 28 13 -5 12 -2 -3 15 -44 48 -47 54 -35 62 7 4 -22 8
-65 9 -43 1 -80 4 -83 6 -9 10 328 4 385 -6z m690 -26 c-3 -21 -6 -192 -6
-380 l0 -343 -130 0 -130 0 0 380 0 380 136 0 137 0 -7 -37z m-421 -633 l140
-139 130 -1 c72 0 160 3 198 7 67 6 67 6 67 36 0 22 -9 38 -31 56 -59 50 -33
131 42 131 44 0 69 -27 69 -72 0 -27 -30 -68 -50 -68 -5 0 -10 -22 -10 -50 l0
-50 -207 0 -208 0 -65 60 c-36 34 -66 57 -68 52 -3 -10 -90 79 -131 133 -22
29 -26 30 -124 36 l-102 5 105 2 106 2 139 -140z m-70 -49 c-7 -6 -64 49 -77
74 -6 11 10 0 36 -24 25 -25 43 -47 41 -50z m141 -139 l51 -52 297 0 c191 0
296 4 296 10 0 18 40 50 62 50 28 0 68 -37 68 -64 0 -28 -39 -66 -67 -66 -13
0 -34 11 -47 25 l-23 25 -294 0 -293 0 -73 75 c-41 41 -77 75 -82 75 -4 0 -8
7 -8 15 0 16 29 -8 113 -93z m364 -138 c18 -46 59 -90 112 -120 l53 -29 304
-3 303 -3 -6 -31 c-3 -17 -6 -75 -6 -129 l0 -99 -307 3 c-290 3 -312 4 -373
26 -67 23 -149 70 -172 98 -11 14 -11 15 2 8 28 -17 41 -15 30 6 -6 10 -15 19
-20 19 -5 0 -11 9 -15 19 -7 24 -45 35 -45 13 0 -51 -102 111 -115 183 l-5 30
11 -27 c16 -40 29 -34 22 10 -7 46 -9 48 -28 32 -12 -10 -15 -10 -15 4 0 14
17 16 130 16 l130 0 10 -26z m-120 -1624 c-8 -5 -19 -10 -25 -10 -5 0 -3 5 5
10 8 5 20 10 25 10 6 0 3 -5 -5 -10z m-383 -126 c-3 -3 -12 -4 -19 -1 -8 3 -5
6 6 6 11 1 17 -2 13 -5z"/>
<path d="M2858 4523 c7 -3 16 -2 19 1 4 3 -2 6 -13 5 -11 0 -14 -3 -6 -6z"/>
<path d="M2981 2564 c6 -7 16 -11 21 -8 11 7 3 17 -18 20 -12 2 -13 -1 -3 -12z"/>
<path d="M3596 2457 c-38 -27 2 -95 42 -71 24 16 28 55 6 71 -10 7 -21 13 -24
13 -3 0 -14 -6 -24 -13z"/>
</g>
</svg>
